<svg width="29" height="28" viewBox="0 0 29 28" fill="none" xmlns="http://www.w3.org/2000/svg">
<path d="M28.0627 9.61538L19.3691 8.38355L15.4828 0.702139C15.3766 0.491826 15.202 0.321573 14.9863 0.218086C14.4453 -0.0423006 13.7879 0.174688 13.5174 0.702139L9.63108 8.38355L0.937449 9.61538C0.697766 9.64876 0.478627 9.75893 0.310849 9.92584C0.108015 10.1291 -0.00375586 10.4025 9.63727e-05 10.6861C0.0039486 10.9697 0.123109 11.2401 0.331393 11.4381L6.62135 17.417L5.13532 25.8595C5.10047 26.0559 5.12276 26.2579 5.19967 26.4426C5.27657 26.6272 5.405 26.7872 5.57041 26.9043C5.73581 27.0214 5.93157 27.091 6.13548 27.1052C6.33939 27.1194 6.5433 27.0776 6.72408 26.9845L14.5001 22.9986L22.2761 26.9845C22.4884 27.0947 22.7349 27.1314 22.9711 27.0913C23.5669 26.9912 23.9675 26.4404 23.8648 25.8595L22.3788 17.417L28.6687 11.4381C28.8399 11.2745 28.9529 11.0609 28.9872 10.8272C29.0796 10.243 28.6619 9.70218 28.0627 9.61538Z" fill="#FFC107"/>
</svg>
